# File produced by Open Asset Import Library (http://www.assimp.sf.net)
# (assimp v3.1.187496374)

mtllib Letter_M.obj.mtl

# 26 vertex positions
v  27.2699 -21.4041 10
v  27.2699 -21.4041 0
v  18.1591 0 10
v  18.1591 0 0
v  36.4431 0 10
v  36.4431 0 0
v  49.5476 0 10
v  49.5476 0 0
v  49.5476 -40 10
v  49.5476 -40 0
v  39.7816 -40 10
v  39.7816 -40 0
v  39.7816 -10.7332 10
v  39.7816 -10.7332 0
v  30.5772 -32.2933 10
v  30.5772 -32.2933 0
v  24.025 -32.2933 10
v  24.025 -32.2933 0
v  14.8206 -10.7332 10
v  14.8206 -10.7332 0
v  14.8206 -40 10
v  14.8206 -40 0
v  5.0234 -40 10
v  5.0234 -40 0
v  5.0234 0 10
v  5.0234 0 0

# 0 UV coordinates

# 10 vertex normals
vn 0.920113 0.391652 0
vn -0.919145 0.393919 0
vn 0 1 0
vn 1 0 0
vn 0 -1 0
vn -1 -0 -0
vn 0.919695 -0.392634 0
vn -0.919695 -0.392634 -0
vn 0 0 1
vn 0 0 -1

# Mesh 'ascii' with 48 faces
g ascii
usemtl DefaultMaterial
f  1//1 2//1 3//1
f  3//1 2//1 4//1
f  5//2 6//2 1//2
f  1//2 6//2 2//2
f  7//3 8//3 5//3
f  5//3 8//3 6//3
f  9//4 10//4 7//4
f  7//4 10//4 8//4
f  11//5 12//5 9//5
f  9//5 12//5 10//5
f  13//6 14//6 11//6
f  11//6 14//6 12//6
f  15//7 16//7 13//7
f  13//7 16//7 14//7
f  17//5 18//5 15//5
f  15//5 18//5 16//5
f  19//8 20//8 17//8
f  17//8 20//8 18//8
f  21//4 22//4 19//4
f  19//4 22//4 20//4
f  23//5 24//5 21//5
f  21//5 24//5 22//5
f  25//6 26//6 23//6
f  23//6 26//6 24//6
f  3//3 4//3 25//3
f  25//3 4//3 26//3
f  3//9 19//9 1//9
f  3//9 25//9 19//9
f  19//9 25//9 23//9
f  21//9 19//9 23//9
f  19//9 17//9 1//9
f  1//9 17//9 15//9
f  13//9 1//9 15//9
f  13//9 5//9 1//9
f  13//9 7//9 5//9
f  13//9 9//9 7//9
f  13//9 11//9 9//9
f  24//10 26//10 20//10
f  22//10 24//10 20//10
f  26//10 4//10 20//10
f  20//10 4//10 2//10
f  18//10 20//10 2//10
f  18//10 2//10 16//10
f  16//10 2//10 14//10
f  14//10 2//10 6//10
f  8//10 14//10 6//10
f  8//10 10//10 14//10
f  14//10 10//10 12//10

