# File produced by Open Asset Import Library (http://www.assimp.sf.net)
# (assimp v3.1.187496374)

mtllib Letter_J.obj.mtl

# 194 vertex positions
v  15.351 -36.0998 10
v  15.351 -36.0998 0
v  15.351 0 10
v  15.351 0 0
v  15.3352 -37.0211 10
v  15.3294 -37.1739 5
v  15.3352 -37.0211 0
v  15.2876 -37.9127 0
v  15.2876 -37.9127 10
v  15.2644 -38.2075 5
v  15.2084 -38.7747 0
v  15.2084 -38.7747 10
v  15.1561 -39.2006 5
v  15.0975 -39.6071 0
v  15.0975 -39.6071 10
v  15.0045 -40.1533 5
v  14.9549 -40.4098 0
v  14.9549 -40.4098 10
v  14.8096 -41.0655 5
v  14.7806 -41.183 0
v  14.7806 -41.183 10
v  14.5714 -41.9371 5
v  14.5746 -41.9265 0
v  14.5746 -41.9265 10
v  14.337 -42.6404 10
v  14.2899 -42.7683 5
v  14.0676 -43.3247 10
v  13.965 -43.5591 5
v  13.7666 -43.9794 10
v  13.5969 -44.3093 5
v  13.4338 -44.6044 10
v  13.1854 -45.0191 5
v  13.0694 -45.1999 10
v  12.7306 -45.6883 5
v  12.6733 -45.7657 10
v  12.2325 -46.3171 5
v  12.2455 -46.3019 10
v  11.786 -46.8085 10
v  11.6911 -46.9055 5
v  11.2949 -47.2855 10
v  11.1064 -47.4534 5
v  11.2949 -47.2855 0
v  10.7715 -47.7332 0
v  11.786 -46.8085 0
v  12.2455 -46.3019 0
v  12.6733 -45.7657 0
v  13.0694 -45.1999 0
v  14.337 -42.6404 0
v  14.0676 -43.3247 0
v  13.7666 -43.9794 0
v  13.4338 -44.6044 0
v  10.7715 -47.7332 10
v  10.4772 -47.9615 5
v  10.2155 -48.1521 0
v  10.2155 -48.1521 10
v  9.80349 -48.4302 5
v  9.6268 -48.542 0
v  9.6268 -48.542 10
v  9.2975 -48.7393 5
v  9.00546 -48.9031 0
v  9.00546 -48.9031 10
v  8.76896 -49.0285 5
v  8.35145 -49.2353 0
v  8.35145 -49.2353 10
v  8.21787 -49.2977 5
v  7.66478 -49.5386 0
v  7.66478 -49.5386 10
v  7.64423 -49.547 5
v  7.04803 -49.7763 5
v  6.94545 -49.813 0
v  6.42929 -49.9857 5
v  6.19345 -50.0585 0
v  5.788 -50.1752 5
v  5.40878 -50.2751 0
v  5.12415 -50.3447 5
v  4.59146 -50.4629 0
v  4.43776 -50.4943 5
v  3.74147 -50.6218 0
v  3.72881 -50.6239 5
v  2.99731 -50.7336 5
v  3.74147 -50.6218 10
v  2.85881 -50.7518 10
v  2.24326 -50.8233 5
v  1.9435 -50.8529 10
v  1.46666 -50.8931 5
v  1.9435 -50.8529 0
v  0.995515 -50.9251 0
v  2.85881 -50.7518 0
v  6.94545 -49.813 10
v  6.19345 -50.0585 10
v  5.40878 -50.2751 10
v  4.59146 -50.4629 10
v  0.995515 -50.9251 10
v  0.667513 -50.943 5
v  0.0148693 -50.9684 0
v  0.0148693 -50.9684 10
v  -0.154188 -50.9729 5
v  -0.99844 -50.9828 0
v  -0.99844 -50.9828 10
v  -3.08892 -50.9828 10
v  -3.08892 -50.9828 0
v  -3.08892 -43.1825 10
v  -3.08892 -43.1825 0
v  -1.49766 -43.1825 10
v  -1.49766 -43.1825 0
v  -1.10204 -43.1755 10
v  -1.02894 -43.1726 5
v  -1.10204 -43.1755 0
v  -0.718604 -43.1545 0
v  -0.718604 -43.1545 10
v  -0.577426 -43.1429 5
v  -0.347358 -43.1194 0
v  -0.347358 -43.1194 10
v  -0.143121 -43.0935 5
v  0.0117005 -43.0704 0
v  0.0117005 -43.0704 10
v  0.273977 -43.0242 5
v  0.358571 -43.0073 0
v  0.358571 -43.0073 10
v  0.673867 -42.9352 5
v  0.693253 -42.9302 0
v  0.693253 -42.9302 10
v  1.01575 -42.8391 10
v  1.05655 -42.8263 5
v  1.32605 -42.734 10
v  1.42202 -42.6977 5
v  1.62417 -42.6149 10
v  1.77029 -42.5493 5
v  1.9101 -42.4817 10
v  2.10135 -42.3811 5
v  2.18384 -42.3346 10
v  2.4152 -42.1931 5
v  2.4454 -42.1734 10
v  2.71185 -41.9853 5
v  2.69476 -41.9982 10
v  2.93194 -41.8089 10
v  2.99128 -41.7577 5
v  3.15693 -41.6057 10
v  3.25351 -41.5104 5
v  3.15693 -41.6057 0
v  3.36974 -41.3885 0
v  2.93194 -41.8089 0
v  2.69476 -41.9982 0
v  2.4454 -42.1734 0
v  2.18384 -42.3346 0
v  1.01575 -42.8391 0
v  1.32605 -42.734 0
v  1.62417 -42.6149 0
v  1.9101 -42.4817 0
v  3.36974 -41.3885 10
v  3.49839 -41.2434 5
v  3.56998 -41.1576 0
v  3.56998 -41.1576 10
v  3.72513 -40.9575 5
v  3.75731 -40.9134 0
v  3.75731 -40.9134 10
v  3.93364 -40.6529 5
v  3.93172 -40.6559 0
v  3.93172 -40.6559 10
v  4.09321 -40.3851 10
v  4.18905 -40.2063 5
v  4.24179 -40.1011 10
v  4.41041 -39.7247 5
v  4.37744 -39.8038 10
v  4.50017 -39.4932 10
v  4.59771 -39.2081 5
v  4.60998 -39.1693 10
v  4.70688 -38.8321 10
v  4.75096 -38.6565 5
v  4.79085 -38.4816 10
v  4.87015 -38.0699 5
v  4.86191 -38.1179 10
v  4.92005 -37.7408 10
v  4.95529 -37.4482 5
v  4.96526 -37.3505 10
v  4.99756 -36.9469 10
v  5.00637 -36.7915 5
v  5.01694 -36.53 10
v  5.0234 -36.0998 10
v  5.01694 -36.53 0
v  5.0234 -36.0998 0
v  4.09321 -40.3851 0
v  4.24179 -40.1011 0
v  4.37744 -39.8038 0
v  4.70688 -38.8321 0
v  4.79085 -38.4816 0
v  4.60998 -39.1693 0
v  4.50017 -39.4932 0
v  4.86191 -38.1179 0
v  4.99756 -36.9469 0
v  4.96526 -37.3505 0
v  4.92005 -37.7408 0
v  5.0234 0 10
v  5.0234 0 0

# 0 UV coordinates

# 243 vertex normals
vn 1 0 0
vn 0.999852 -0.0171966 0
vn 0.999749 -0.0223817 -0.000477823
vn 0.998582 -0.0532359 -0.000466769
vn 0.999852 -0.0171966 0.000636453
vn 0.998582 -0.0532359 0.000466769
vn 0.99803 -0.0627323 -0.00094095
vn 0.995803 -0.0915195 -0.000766954
vn 0.99803 -0.0627323 0.00094095
vn 0.995803 -0.0915195 0.000766954
vn 0.994108 -0.108388 -0.0011654
vn 0.991239 -0.132078 -0.000882883
vn 0.994108 -0.108388 0.0011654
vn 0.991239 -0.132078 0.000882883
vn 0.987574 -0.157151 -0.00119805
vn 0.984586 -0.174898 -0.000796294
vn 0.987574 -0.157151 0.00119805
vn 0.984586 -0.174898 0.000796294
vn 0.977924 -0.208956 -0.00101719
vn 0.97552 -0.219909 -0.000488876
vn 0.977924 -0.208956 0.00101719
vn 0.97552 -0.219909 0.000488876
vn 0.964627 -0.263617 -0.000601531
vn 0.963704 -0.266972 5.69863e-05
vn 0.964627 -0.263617 0.000601531
vn 0.963704 -0.266972 -5.69863e-05
vn 0.948805 -0.315863 5.67501e-05
vn 0.930508 -0.36627 0.000604859
vn 0.908547 -0.417781 0.000939923
vn 0.882724 -0.469891 0.00104522
vn 0.852938 -0.522011 0.000907193
vn 0.819211 -0.573492 0.000516694
vn 0.7817 -0.623654 -0.000130037
vn 0.740706 -0.67183 0.000123016
vn 0.735839 -0.677156 -0.000835041
vn 0.696661 -0.7174 0.000688796
vn 0.683713 -0.729749 -0.00127603
vn 0.650069 -0.759874 -0.00100367
vn 0.683713 -0.729749 0.00127603
vn 0.696661 -0.7174 -0.000688796
vn 0.735839 -0.677156 0.000835041
vn 0.740706 -0.67183 -0.000123016
vn 0.7817 -0.623654 0.000130037
vn 0.78387 -0.620925 0.000622379
vn 0.819211 -0.573492 -0.000516694
vn 0.827117 -0.562028 0.00113895
vn 0.827117 -0.562028 -0.00113895
vn 0.947147 -0.3208 -0.000715327
vn 0.930508 -0.36627 -0.000604859
vn 0.947147 -0.3208 0.000715327
vn 0.948805 -0.315863 -5.67501e-05
vn 0.924986 -0.379999 -0.00116829
vn 0.908547 -0.417781 -0.000939923
vn 0.924986 -0.379999 0.00116829
vn 0.897736 -0.440531 -0.00140161
vn 0.882724 -0.469891 -0.00104522
vn 0.897736 -0.440531 0.00140161
vn 0.865134 -0.501539 -0.00139642
vn 0.852938 -0.522011 -0.000907193
vn 0.865134 -0.501539 0.00139642
vn 0.78387 -0.620925 -0.000622379
vn 0.650069 -0.759874 0.00100367
vn 0.62837 -0.777913 -0.00145923
vn 0.601679 -0.798737 -0.00106243
vn 0.62837 -0.777913 0.00145923
vn 0.601679 -0.798737 0.00106243
vn 0.571058 -0.820908 -0.00138552
vn 0.552248 -0.833679 -0.000874906
vn 0.571058 -0.820908 0.00138552
vn 0.552248 -0.833679 0.000874906
vn 0.521316 -0.853364 -0.000658259
vn 0.502436 -0.864614 -0.00102914
vn 0.521316 -0.853364 0.000658259
vn 0.502436 -0.864614 0.00102914
vn 0.479964 -0.877288 -0.000698508
vn 0.452854 -0.891584 -0.000942378
vn 0.479964 -0.877288 0.000698508
vn 0.452854 -0.891584 0.000942378
vn 0.438946 -0.898513 -0.000505471
vn 0.404036 -0.914743 -0.000629918
vn 0.438946 -0.898513 0.000505471
vn 0.404036 -0.914743 0.000629918
vn 0.398551 -0.917146 -9.25486e-05
vn 0.359023 -0.933329 -9.72246e-05
vn 0.32056 -0.947228 0.000365688
vn 0.283317 -0.959026 0.000595968
vn 0.247407 -0.968911 0.000608389
vn 0.212907 -0.977072 0.000418245
vn 0.17986 -0.983692 4.08913e-05
vn 0.148285 -0.988945 4.12684e-05
vn 0.145695 -0.98933 0.000435453
vn 0.118178 -0.992992 -0.000340075
vn 0.109785 -0.993955 0.000706918
vn 0.0895159 -0.995985 -0.000520282
vn 0.0759563 -0.997111 -0.00078191
vn 0.0895159 -0.995985 0.000520282
vn 0.109785 -0.993955 -0.000706918
vn 0.118178 -0.992992 0.000340075
vn 0.145695 -0.98933 -0.000435453
vn 0.148285 -0.988945 -4.12684e-05
vn 0.359023 -0.933329 9.72246e-05
vn 0.356426 -0.934323 0.000464788
vn 0.310375 -0.950614 0.000802746
vn 0.266138 -0.963935 0.000911666
vn 0.223888 -0.974615 0.0008098
vn 0.183727 -0.982977 0.000515792
vn 0.17986 -0.983692 -4.08913e-05
vn 0.32056 -0.947228 -0.000365688
vn 0.283317 -0.959026 -0.000595968
vn 0.247407 -0.968911 -0.000608389
vn 0.212907 -0.977072 -0.000418245
vn 0.0759563 -0.997111 0.00078191
vn 0.062265 -0.998059 -0.000514278
vn 0.0441404 -0.999025 -0.000678161
vn 0.062265 -0.998059 0.000514278
vn 0.0441404 -0.999025 0.000678161
vn 0.0363803 -0.999338 -0.000336345
vn 0.0142516 -0.999898 -0.000412359
vn 0.0363803 -0.999338 0.000336345
vn 0.0142516 -0.999898 0.000412359
vn 0.0118098 -0.99993 0
vn 0.183727 -0.982977 -0.000515792
vn 0.223888 -0.974615 -0.0008098
vn 0.266138 -0.963935 -0.000911666
vn 0.310375 -0.950614 -0.000802746
vn 0.356426 -0.934323 -0.000464788
vn 0.398551 -0.917146 9.25486e-05
vn 0 -1 0
vn -1 -0 -0
vn 0 1 0
vn -0.0177113 0.999843 0
vn -0.0235819 0.999722 0.000232337
vn -0.0547493 0.9985 0.000224026
vn -0.0177113 0.999843 -0.000318233
vn -0.0547493 0.9985 -0.000224026
vn -0.0655999 0.997846 0.000451813
vn -0.0939684 0.995575 0.000354429
vn -0.0655999 0.997846 -0.000451813
vn -0.0939684 0.995575 -0.000354429
vn -0.113179 0.993575 0.0005389
vn -0.135368 0.990795 0.000381934
vn -0.113179 0.993575 -0.0005389
vn -0.135368 0.990795 -0.000381934
vn -0.163811 0.986492 0.00051863
vn -0.178901 0.983867 0.000297155
vn -0.163811 0.986492 -0.00051863
vn -0.178901 0.983867 -0.000297155
vn -0.217361 0.976091 0.000379812
vn -0.224458 0.974484 9.09224e-05
vn -0.217361 0.976091 -0.000379812
vn -0.224458 0.974484 -9.09224e-05
vn -0.271862 0.962336 0.000104853
vn -0.320855 0.947128 -0.000193454
vn -0.371096 0.928594 -0.000380039
vn -0.422155 0.906523 -0.000446222
vn -0.473527 0.880779 -0.000384785
vn -0.52464 0.851324 -0.000190549
vn -0.574884 0.818235 0.000139111
vn -0.623641 0.781711 -0.000121363
vn -0.631475 0.775396 0.000446238
vn -0.670318 0.742074 -0.000356017
vn -0.686182 0.72743 0.000614777
vn -0.714383 0.699755 0.000457624
vn -0.686182 0.72743 -0.000614777
vn -0.670318 0.742074 0.000356017
vn -0.631475 0.775396 -0.000446238
vn -0.623641 0.781711 0.000121363
vn -0.574884 0.818235 -0.000139111
vn -0.573705 0.819062 -0.000233044
vn -0.52464 0.851324 0.000190549
vn -0.513857 0.857876 -0.000493755
vn -0.513857 0.857876 0.000493755
vn -0.27356 0.961855 0.000230205
vn -0.320855 0.947128 0.000193454
vn -0.27356 0.961855 -0.000230205
vn -0.271862 0.962336 -0.000104853
vn -0.331984 0.943285 0.000477356
vn -0.371096 0.928594 0.000380039
vn -0.331984 0.943285 -0.000477356
vn -0.39204 0.919948 0.000609958
vn -0.422155 0.906523 0.000446222
vn -0.39204 0.919948 -0.000609958
vn -0.452967 0.891527 0.000617968
vn -0.473527 0.880779 0.000384785
vn -0.452967 0.891527 -0.000617968
vn -0.573705 0.819062 0.000233044
vn -0.714383 0.699755 -0.000457624
vn -0.736984 0.675909 0.000649183
vn -0.755472 0.655181 0.000427959
vn -0.736984 0.675909 -0.000649183
vn -0.755472 0.655181 -0.000427959
vn -0.783468 0.621432 0.000552205
vn -0.793418 0.608677 0.000266873
vn -0.783468 0.621432 -0.000552205
vn -0.793418 0.608677 -0.000266873
vn -0.825209 0.564828 0.000324817
vn -0.827927 0.560835 -2.09495e-05
vn -0.825209 0.564828 -0.000324817
vn -0.827927 0.560835 2.09495e-05
vn -0.858837 0.512248 -2.01989e-05
vn -0.886103 0.463488 -0.00040805
vn -0.909784 0.415081 0.000561927
vn -0.930029 0.367486 -0.000323933
vn -0.940115 0.340855 0.00109055
vn -0.947049 0.321088 -0.000171565
vn -0.961103 0.276189 0.000211946
vn -0.972473 0.233015 -0.000391429
vn -0.98145 0.191719 0.000222299
vn -0.98832 0.152393 -0.000166519
vn -0.990751 0.135686 0.00095722
vn -0.993357 0.115077 -0.000267231
vn -0.996813 0.0797691 0.000429602
vn -0.998921 0.0464343 -0.000317406
vn -0.999886 0.0150146 0.00132801
vn -0.999581 0.0289377 -0.000599134
vn -0.999887 0.0150146 0
vn -0.868047 0.496481 0.00111802
vn -0.886103 0.463488 0.00040805
vn -0.868047 0.496481 -0.00111802
vn -0.858837 0.512248 2.01989e-05
vn -0.908612 0.417641 0.000794145
vn -0.909784 0.415081 -0.000561927
vn -0.908612 0.417641 -0.000794145
vn -0.963508 0.267676 0.00090472
vn -0.972473 0.233015 0.000391429
vn -0.963508 0.267676 -0.00090472
vn -0.961103 0.276189 -0.000211946
vn -0.947049 0.321088 0.000171565
vn -0.930029 0.367486 0.000323933
vn -0.940115 0.340855 -0.00109055
vn -0.979977 0.199111 0.00085436
vn -0.98145 0.191719 -0.000222299
vn -0.979977 0.199111 -0.00085436
vn -0.996988 0.0775552 0.000653049
vn -0.998921 0.0464343 0.000317406
vn -0.996988 0.0775552 -0.000653049
vn -0.996813 0.0797691 -0.000429602
vn -0.993357 0.115077 0.000267231
vn -0.98832 0.152393 0.000166519
vn -0.990751 0.135686 -0.00095722
vn -1 2.46034e-17 0
vn 0 0 1
vn 0 0 -1

# Mesh 'ascii' with 384 faces
g ascii
usemtl DefaultMaterial
f  1//1 2//1 3//1
f  3//1 2//1 4//1
f  1//2 5//2 2//2
f  2//3 5//3 6//3
f  7//4 6//4 8//4
f  7//5 2//5 6//5
f  5//6 9//6 6//6
f  6//7 9//7 10//7
f  8//8 10//8 11//8
f  8//9 6//9 10//9
f  9//10 12//10 10//10
f  10//11 12//11 13//11
f  11//12 13//12 14//12
f  11//13 10//13 13//13
f  12//14 15//14 13//14
f  13//15 15//15 16//15
f  14//16 16//16 17//16
f  14//17 13//17 16//17
f  15//18 18//18 16//18
f  16//19 18//19 19//19
f  17//20 19//20 20//20
f  17//21 16//21 19//21
f  18//22 21//22 19//22
f  19//23 21//23 22//23
f  20//24 22//24 23//24
f  20//25 19//25 22//25
f  21//26 24//26 22//26
f  22//27 24//27 25//27
f  26//28 25//28 27//28
f  28//29 27//29 29//29
f  30//30 29//30 31//30
f  32//31 31//31 33//31
f  34//32 33//32 35//32
f  36//33 35//33 37//33
f  38//34 36//34 37//34
f  38//35 39//35 36//35
f  38//36 40//36 39//36
f  39//37 40//37 41//37
f  42//38 41//38 43//38
f  42//39 39//39 41//39
f  42//40 44//40 39//40
f  39//41 44//41 36//41
f  36//42 44//42 45//42
f  46//43 36//43 45//43
f  46//44 34//44 36//44
f  46//45 47//45 34//45
f  34//46 47//46 32//46
f  33//47 34//47 32//47
f  22//48 25//48 26//48
f  48//49 26//49 49//49
f  48//50 22//50 26//50
f  48//51 23//51 22//51
f  26//52 27//52 28//52
f  49//53 28//53 50//53
f  49//54 26//54 28//54
f  28//55 29//55 30//55
f  50//56 30//56 51//56
f  50//57 28//57 30//57
f  30//58 31//58 32//58
f  51//59 32//59 47//59
f  51//60 30//60 32//60
f  34//61 35//61 36//61
f  40//62 52//62 41//62
f  41//63 52//63 53//63
f  43//64 53//64 54//64
f  43//65 41//65 53//65
f  52//66 55//66 53//66
f  53//67 55//67 56//67
f  54//68 56//68 57//68
f  54//69 53//69 56//69
f  55//70 58//70 56//70
f  56//71 58//71 59//71
f  57//72 59//72 60//72
f  57//73 56//73 59//73
f  58//74 61//74 59//74
f  59//75 61//75 62//75
f  60//76 62//76 63//76
f  60//77 59//77 62//77
f  61//78 64//78 62//78
f  62//79 64//79 65//79
f  63//80 65//80 66//80
f  63//81 62//81 65//81
f  64//82 67//82 65//82
f  65//83 67//83 68//83
f  66//84 68//84 69//84
f  70//85 69//85 71//85
f  72//86 71//86 73//86
f  74//87 73//87 75//87
f  76//88 75//88 77//88
f  78//89 77//89 79//89
f  80//90 79//90 81//90
f  82//91 80//91 81//91
f  82//92 83//92 80//92
f  82//93 84//93 83//93
f  83//94 84//94 85//94
f  86//95 85//95 87//95
f  86//96 83//96 85//96
f  86//97 88//97 83//97
f  83//98 88//98 80//98
f  80//99 88//99 78//99
f  79//100 80//100 78//100
f  68//101 67//101 69//101
f  69//102 67//102 89//102
f  71//103 89//103 90//103
f  73//104 90//104 91//104
f  75//105 91//105 92//105
f  77//106 92//106 81//106
f  79//107 77//107 81//107
f  69//108 89//108 71//108
f  71//109 90//109 73//109
f  73//110 91//110 75//110
f  75//111 92//111 77//111
f  84//112 93//112 85//112
f  85//113 93//113 94//113
f  87//114 94//114 95//114
f  87//115 85//115 94//115
f  93//116 96//116 94//116
f  94//117 96//117 97//117
f  95//118 97//118 98//118
f  95//119 94//119 97//119
f  96//120 99//120 97//120
f  97//121 99//121 98//121
f  78//122 76//122 77//122
f  76//123 74//123 75//123
f  74//124 72//124 73//124
f  72//125 70//125 71//125
f  70//126 66//126 69//126
f  68//127 66//127 65//127
f  100//128 101//128 99//128
f  99//128 101//128 98//128
f  102//129 103//129 100//129
f  100//129 103//129 101//129
f  104//130 105//130 102//130
f  102//130 105//130 103//130
f  104//131 106//131 105//131
f  105//132 106//132 107//132
f  108//133 107//133 109//133
f  108//134 105//134 107//134
f  106//135 110//135 107//135
f  107//136 110//136 111//136
f  109//137 111//137 112//137
f  109//138 107//138 111//138
f  110//139 113//139 111//139
f  111//140 113//140 114//140
f  112//141 114//141 115//141
f  112//142 111//142 114//142
f  113//143 116//143 114//143
f  114//144 116//144 117//144
f  115//145 117//145 118//145
f  115//146 114//146 117//146
f  116//147 119//147 117//147
f  117//148 119//148 120//148
f  118//149 120//149 121//149
f  118//150 117//150 120//150
f  119//151 122//151 120//151
f  120//152 122//152 123//152
f  124//153 123//153 125//153
f  126//154 125//154 127//154
f  128//155 127//155 129//155
f  130//156 129//156 131//156
f  132//157 131//157 133//157
f  134//158 133//158 135//158
f  136//159 134//159 135//159
f  136//160 137//160 134//160
f  136//161 138//161 137//161
f  137//162 138//162 139//162
f  140//163 139//163 141//163
f  140//164 137//164 139//164
f  140//165 142//165 137//165
f  137//166 142//166 134//166
f  134//167 142//167 143//167
f  144//168 134//168 143//168
f  144//169 132//169 134//169
f  144//170 145//170 132//170
f  132//171 145//171 130//171
f  131//172 132//172 130//172
f  120//173 123//173 124//173
f  146//174 124//174 147//174
f  146//175 120//175 124//175
f  146//176 121//176 120//176
f  124//177 125//177 126//177
f  147//178 126//178 148//178
f  147//179 124//179 126//179
f  126//180 127//180 128//180
f  148//181 128//181 149//181
f  148//182 126//182 128//182
f  128//183 129//183 130//183
f  149//184 130//184 145//184
f  149//185 128//185 130//185
f  132//186 133//186 134//186
f  138//187 150//187 139//187
f  139//188 150//188 151//188
f  141//189 151//189 152//189
f  141//190 139//190 151//190
f  150//191 153//191 151//191
f  151//192 153//192 154//192
f  152//193 154//193 155//193
f  152//194 151//194 154//194
f  153//195 156//195 154//195
f  154//196 156//196 157//196
f  155//197 157//197 158//197
f  155//198 154//198 157//198
f  156//199 159//199 157//199
f  157//200 159//200 160//200
f  161//201 160//201 162//201
f  163//202 162//202 164//202
f  165//203 163//203 164//203
f  165//204 166//204 163//204
f  165//205 167//205 166//205
f  166//206 167//206 168//206
f  169//207 168//207 170//207
f  171//208 170//208 172//208
f  173//209 171//209 172//209
f  173//210 174//210 171//210
f  173//211 175//211 174//211
f  174//212 175//212 176//212
f  177//213 176//213 178//213
f  179//214 177//214 178//214
f  179//215 180//215 177//215
f  179//216 181//216 180//216
f  157//217 160//217 161//217
f  182//218 161//218 183//218
f  182//219 157//219 161//219
f  182//220 158//220 157//220
f  161//221 162//221 163//221
f  183//222 163//222 184//222
f  183//223 161//223 163//223
f  166//224 168//224 169//224
f  185//225 169//225 186//225
f  185//226 166//226 169//226
f  185//227 187//227 166//227
f  166//228 187//228 188//228
f  163//229 188//229 184//229
f  163//230 166//230 188//230
f  169//231 170//231 171//231
f  186//232 171//232 189//232
f  186//233 169//233 171//233
f  174//234 176//234 177//234
f  190//235 177//235 180//235
f  190//236 174//236 177//236
f  190//237 191//237 174//237
f  174//238 191//238 192//238
f  171//239 192//239 189//239
f  171//240 174//240 192//240
f  193//241 194//241 179//241
f  179//241 194//241 181//241
f  3//130 4//130 193//130
f  193//130 4//130 194//130
f  3//242 193//242 1//242
f  1//242 193//242 179//242
f  5//242 1//242 179//242
f  5//242 179//242 9//242
f  12//242 9//242 179//242
f  12//242 179//242 15//242
f  179//242 18//242 15//242
f  21//242 18//242 179//242
f  21//242 179//242 24//242
f  179//242 25//242 24//242
f  27//242 25//242 179//242
f  178//242 27//242 179//242
f  178//242 176//242 27//242
f  27//242 176//242 175//242
f  173//242 27//242 175//242
f  173//242 172//242 27//242
f  27//242 172//242 170//242
f  168//242 27//242 170//242
f  168//242 167//242 27//242
f  27//242 167//242 165//242
f  164//242 27//242 165//242
f  164//242 162//242 27//242
f  27//242 162//242 160//242
f  159//242 27//242 160//242
f  159//242 29//242 27//242
f  159//242 156//242 29//242
f  29//242 156//242 153//242
f  150//242 29//242 153//242
f  150//242 138//242 29//242
f  29//242 138//242 136//242
f  135//242 29//242 136//242
f  135//242 100//242 29//242
f  31//242 29//242 100//242
f  135//242 133//242 100//242
f  100//242 133//242 131//242
f  129//242 100//242 131//242
f  129//242 127//242 100//242
f  100//242 127//242 125//242
f  123//242 100//242 125//242
f  123//242 122//242 100//242
f  100//242 122//242 119//242
f  116//242 100//242 119//242
f  116//242 113//242 100//242
f  100//242 113//242 110//242
f  106//242 100//242 110//242
f  106//242 104//242 100//242
f  100//242 104//242 102//242
f  99//242 96//242 100//242
f  100//242 96//242 93//242
f  84//242 100//242 93//242
f  84//242 82//242 100//242
f  100//242 82//242 81//242
f  92//242 100//242 81//242
f  92//242 91//242 100//242
f  100//242 91//242 90//242
f  89//242 100//242 90//242
f  89//242 67//242 100//242
f  100//242 67//242 64//242
f  61//242 100//242 64//242
f  61//242 58//242 100//242
f  100//242 58//242 55//242
f  52//242 100//242 55//242
f  52//242 40//242 100//242
f  100//242 40//242 38//242
f  37//242 100//242 38//242
f  37//242 35//242 100//242
f  100//242 35//242 33//242
f  31//242 100//242 33//242
f  194//243 4//243 181//243
f  181//243 4//243 2//243
f  7//243 181//243 2//243
f  7//243 8//243 181//243
f  181//243 8//243 11//243
f  14//243 181//243 11//243
f  14//243 17//243 181//243
f  181//243 17//243 20//243
f  23//243 181//243 20//243
f  23//243 48//243 181//243
f  181//243 48//243 180//243
f  180//243 48//243 190//243
f  190//243 48//243 191//243
f  191//243 48//243 192//243
f  192//243 48//243 189//243
f  189//243 48//243 186//243
f  186//243 48//243 185//243
f  185//243 48//243 187//243
f  187//243 48//243 188//243
f  188//243 48//243 184//243
f  184//243 48//243 183//243
f  183//243 48//243 182//243
f  182//243 48//243 158//243
f  158//243 48//243 155//243
f  155//243 48//243 152//243
f  152//243 48//243 49//243
f  141//243 152//243 49//243
f  141//243 49//243 140//243
f  140//243 49//243 142//243
f  49//243 143//243 142//243
f  144//243 143//243 49//243
f  144//243 49//243 145//243
f  49//243 149//243 145//243
f  148//243 149//243 49//243
f  148//243 49//243 147//243
f  49//243 146//243 147//243
f  121//243 146//243 49//243
f  121//243 49//243 118//243
f  49//243 115//243 118//243
f  112//243 115//243 49//243
f  112//243 49//243 109//243
f  49//243 108//243 109//243
f  105//243 108//243 49//243
f  57//243 105//243 49//243
f  57//243 60//243 105//243
f  105//243 60//243 63//243
f  66//243 105//243 63//243
f  66//243 70//243 105//243
f  105//243 70//243 72//243
f  74//243 105//243 72//243
f  74//243 76//243 105//243
f  105//243 76//243 78//243
f  88//243 105//243 78//243
f  88//243 86//243 105//243
f  105//243 86//243 87//243
f  95//243 105//243 87//243
f  95//243 98//243 105//243
f  105//243 98//243 101//243
f  103//243 105//243 101//243
f  57//243 49//243 54//243
f  49//243 43//243 54//243
f  42//243 43//243 49//243
f  42//243 49//243 44//243
f  49//243 45//243 44//243
f  46//243 45//243 49//243
f  46//243 49//243 47//243
f  50//243 51//243 49//243
f  49//243 51//243 47//243

