# File produced by Open Asset Import Library (http://www.assimp.sf.net)
# (assimp v3.1.187496374)

mtllib Letter_K.obj.mtl

# 22 vertex positions
v  15.351 -14.6022 10
v  15.351 -14.6022 0
v  15.351 0 10
v  15.351 0 0
v  30.2028 0 10
v  30.2028 0 0
v  42.1841 0 10
v  42.1841 0 0
v  22.9329 -18.9392 10
v  22.9329 -18.9392 0
v  44.181 -40 10
v  44.181 -40 0
v  31.2636 -40 10
v  31.2636 -40 0
v  15.351 -24.2434 10
v  15.351 -24.2434 0
v  15.351 -40 10
v  15.351 -40 0
v  5.0234 -40 10
v  5.0234 -40 0
v  5.0234 0 10
v  5.0234 0 0

# 0 UV coordinates

# 10 vertex normals
vn 1 0 0
vn -0.701089 0.713074 0
vn 0 1 0
vn 0.701306 -0.71286 0
vn 0.703971 0.710229 0
vn 0 -1 0
vn -0.703615 -0.710581 -0
vn -1 2.22045e-17 0
vn 0 0 1
vn -0 -0 -1

# Mesh 'ascii' with 40 faces
g ascii
usemtl DefaultMaterial
f  1//1 2//1 3//1
f  3//1 2//1 4//1
f  5//2 6//2 1//2
f  1//2 6//2 2//2
f  7//3 8//3 5//3
f  5//3 8//3 6//3
f  9//4 10//4 7//4
f  7//4 10//4 8//4
f  11//5 12//5 9//5
f  9//5 12//5 10//5
f  13//6 14//6 11//6
f  11//6 14//6 12//6
f  15//7 16//7 13//7
f  13//7 16//7 14//7
f  17//1 18//1 15//1
f  15//1 18//1 16//1
f  19//6 20//6 17//6
f  17//6 20//6 18//6
f  21//8 22//8 19//8
f  19//8 22//8 20//8
f  3//3 4//3 21//3
f  21//3 4//3 22//3
f  3//9 21//9 1//9
f  1//9 21//9 15//9
f  21//9 19//9 15//9
f  1//9 15//9 9//9
f  5//9 1//9 9//9
f  9//9 15//9 13//9
f  15//9 19//9 17//9
f  11//9 9//9 13//9
f  5//9 9//9 7//9
f  4//10 2//10 22//10
f  22//10 2//10 16//10
f  16//10 2//10 10//10
f  6//10 10//10 2//10
f  20//10 22//10 16//10
f  20//10 16//10 18//10
f  14//10 16//10 10//10
f  14//10 10//10 12//10
f  8//10 10//10 6//10

