# File produced by Open Asset Import Library (http://www.assimp.sf.net)
# (assimp v3.1.187496374)

mtllib Letter_N.obj.mtl

# 20 vertex positions
v  31.1076 -27.4259 10
v  31.1076 -27.4259 0
v  16.5679 0 10
v  16.5679 0 0
v  31.1076 0 10
v  31.1076 0 0
v  40.8736 0 10
v  40.8736 0 0
v  40.8736 -40 10
v  40.8736 -40 0
v  29.3604 -40 10
v  29.3604 -40 0
v  14.8206 -12.5741 10
v  14.8206 -12.5741 0
v  14.8206 -40 10
v  14.8206 -40 0
v  5.0234 -40 10
v  5.0234 -40 0
v  5.0234 0 10
v  5.0234 0 0

# 0 UV coordinates

# 8 vertex normals
vn 0.883519 0.468396 0
vn -1 -0 -0
vn 0 1 0
vn 1 0 0
vn 0 -1 0
vn -0.883519 -0.468396 -0
vn 0 0 1
vn 0 0 -1

# Mesh 'ascii' with 36 faces
g ascii
usemtl DefaultMaterial
f  1//1 2//1 3//1
f  3//1 2//1 4//1
f  5//2 6//2 1//2
f  1//2 6//2 2//2
f  7//3 8//3 5//3
f  5//3 8//3 6//3
f  9//4 10//4 7//4
f  7//4 10//4 8//4
f  11//5 12//5 9//5
f  9//5 12//5 10//5
f  13//6 14//6 11//6
f  11//6 14//6 12//6
f  15//4 16//4 13//4
f  13//4 16//4 14//4
f  17//5 18//5 15//5
f  15//5 18//5 16//5
f  19//2 20//2 17//2
f  17//2 20//2 18//2
f  3//3 4//3 19//3
f  19//3 4//3 20//3
f  3//7 13//7 1//7
f  3//7 19//7 13//7
f  13//7 19//7 17//7
f  15//7 13//7 17//7
f  13//7 11//7 1//7
f  1//7 11//7 9//7
f  7//7 1//7 9//7
f  7//7 5//7 1//7
f  18//8 20//8 14//8
f  16//8 18//8 14//8
f  20//8 4//8 14//8
f  14//8 4//8 2//8
f  12//8 14//8 2//8
f  12//8 2//8 10//8
f  6//8 8//8 2//8
f  2//8 8//8 10//8

